<mxfile host="app.diagrams.net" modified="2024-05-27T07:49:12.248Z" agent="Mozilla/5.0 (Windows NT 10.0; Win64; x64) AppleWebKit/537.36 (KHTML, like Gecko) Chrome/125.0.0.0 Safari/537.36" etag="zNkdA-qw3smCZ08aZS8m" version="24.4.4" type="device">
  <diagram name="Page-1" id="9uScRqWnVSKqUHaawSyz">
    <mxGraphModel dx="934" dy="494" grid="1" gridSize="10" guides="1" tooltips="1" connect="1" arrows="1" fold="1" page="1" pageScale="1" pageWidth="850" pageHeight="1100" math="0" shadow="0">
      <root>
        <mxCell id="0" />
        <mxCell id="1" parent="0" />
        <mxCell id="YlER1hfRmnDVrgWF9sil-164" value="Football Player Management System" style="whiteSpace=wrap;strokeWidth=2;verticalAlign=top;" vertex="1" parent="1">
          <mxGeometry x="30" y="20" width="1626" height="1102" as="geometry" />
        </mxCell>
        <mxCell id="YlER1hfRmnDVrgWF9sil-165" value="Stack: Team 1" style="whiteSpace=wrap;strokeWidth=2;" vertex="1" parent="YlER1hfRmnDVrgWF9sil-164">
          <mxGeometry x="130" y="58" width="115" height="34" as="geometry" />
        </mxCell>
        <mxCell id="YlER1hfRmnDVrgWF9sil-166" value="Team 1" style="whiteSpace=wrap;strokeWidth=2;verticalAlign=top;" vertex="1" parent="YlER1hfRmnDVrgWF9sil-164">
          <mxGeometry x="28" y="33" width="351" height="650" as="geometry" />
        </mxCell>
        <mxCell id="YlER1hfRmnDVrgWF9sil-167" value="Player Name: John&#xa;Jersey #: 7&#xa;Goals: 5&#xa;Red Cards: 1&#xa;Yellow Cards: 2&#xa;Pass Accuracy: 85%" style="whiteSpace=wrap;strokeWidth=2;" vertex="1" parent="YlER1hfRmnDVrgWF9sil-164">
          <mxGeometry x="193" y="167" width="151" height="114" as="geometry" />
        </mxCell>
        <mxCell id="YlER1hfRmnDVrgWF9sil-168" value="Player Name: Alice&#xa;Jersey #: 11&#xa;Goals: 3&#xa;Red Cards: 0&#xa;Yellow Cards: 1&#xa;Pass Accuracy: 92%" style="whiteSpace=wrap;strokeWidth=2;" vertex="1" parent="YlER1hfRmnDVrgWF9sil-164">
          <mxGeometry x="138" y="355" width="151" height="114" as="geometry" />
        </mxCell>
        <mxCell id="YlER1hfRmnDVrgWF9sil-169" value="Player Name: Bob&#xa;Jersey #: 9&#xa;Goals: 2&#xa;Red Cards: 0&#xa;Yellow Cards: 0&#xa;Pass Accuracy: 88%" style="whiteSpace=wrap;strokeWidth=2;" vertex="1" parent="YlER1hfRmnDVrgWF9sil-164">
          <mxGeometry x="82" y="544" width="151" height="114" as="geometry" />
        </mxCell>
        <mxCell id="YlER1hfRmnDVrgWF9sil-170" value="Stack: Team 2" style="whiteSpace=wrap;strokeWidth=2;" vertex="1" parent="YlER1hfRmnDVrgWF9sil-164">
          <mxGeometry x="479" y="207" width="115" height="34" as="geometry" />
        </mxCell>
        <mxCell id="YlER1hfRmnDVrgWF9sil-171" value="Player Name: Emma&#xa;Jersey #: 10&#xa;Goals: 4&#xa;Red Cards: 1&#xa;Yellow Cards: 3&#xa;Pass Accuracy: 87%" style="whiteSpace=wrap;strokeWidth=2;" vertex="1" parent="YlER1hfRmnDVrgWF9sil-164">
          <mxGeometry x="504" y="355" width="160" height="114" as="geometry" />
        </mxCell>
        <mxCell id="YlER1hfRmnDVrgWF9sil-172" value="Player Name: Charlie&#xa;Jersey #: 5&#xa;Goals: 1&#xa;Red Cards: 0&#xa;Yellow Cards: 2&#xa;Pass Accuracy: 90%" style="whiteSpace=wrap;strokeWidth=2;" vertex="1" parent="YlER1hfRmnDVrgWF9sil-164">
          <mxGeometry x="442" y="544" width="168" height="114" as="geometry" />
        </mxCell>
        <mxCell id="YlER1hfRmnDVrgWF9sil-173" value="Stack: Team 3" style="whiteSpace=wrap;strokeWidth=2;" vertex="1" parent="YlER1hfRmnDVrgWF9sil-164">
          <mxGeometry x="786" y="395" width="115" height="34" as="geometry" />
        </mxCell>
        <mxCell id="YlER1hfRmnDVrgWF9sil-174" value="Player Name: David&#xa;Jersey #: 4&#xa;Goals: 0&#xa;Red Cards: 0&#xa;Yellow Cards: 1&#xa;Pass Accuracy: 82%" style="whiteSpace=wrap;strokeWidth=2;" vertex="1" parent="YlER1hfRmnDVrgWF9sil-164">
          <mxGeometry x="756" y="544" width="156" height="114" as="geometry" />
        </mxCell>
        <mxCell id="YlER1hfRmnDVrgWF9sil-175" value="Stack: Team 4" style="whiteSpace=wrap;strokeWidth=2;" vertex="1" parent="YlER1hfRmnDVrgWF9sil-164">
          <mxGeometry x="1033" y="584" width="115" height="34" as="geometry" />
        </mxCell>
        <mxCell id="YlER1hfRmnDVrgWF9sil-176" value="Player Name: Sarah&#xa;Jersey #: 8&#xa;Goals: 2&#xa;Red Cards: 0&#xa;Yellow Cards: 1&#xa;Pass Accuracy: 84%" style="whiteSpace=wrap;strokeWidth=2;" vertex="1" parent="YlER1hfRmnDVrgWF9sil-164">
          <mxGeometry x="1002" y="758" width="156" height="114" as="geometry" />
        </mxCell>
        <mxCell id="YlER1hfRmnDVrgWF9sil-177" value="Stack: Team 5" style="whiteSpace=wrap;strokeWidth=2;" vertex="1" parent="YlER1hfRmnDVrgWF9sil-164">
          <mxGeometry x="1270" y="798" width="115" height="34" as="geometry" />
        </mxCell>
        <mxCell id="YlER1hfRmnDVrgWF9sil-178" value="Player Name: Ethan&#xa;Jersey #: 3&#xa;Goals: 3&#xa;Red Cards: 1&#xa;Yellow Cards: 2&#xa;Pass Accuracy: 89%" style="whiteSpace=wrap;strokeWidth=2;" vertex="1" parent="YlER1hfRmnDVrgWF9sil-164">
          <mxGeometry x="1248" y="946" width="158" height="114" as="geometry" />
        </mxCell>
        <mxCell id="YlER1hfRmnDVrgWF9sil-179" value="Team 2" style="whiteSpace=wrap;strokeWidth=2;verticalAlign=top;" vertex="1" parent="YlER1hfRmnDVrgWF9sil-164">
          <mxGeometry x="399" y="142" width="301" height="541" as="geometry" />
        </mxCell>
        <mxCell id="YlER1hfRmnDVrgWF9sil-180" value="Team 3" style="whiteSpace=wrap;strokeWidth=2;verticalAlign=top;" vertex="1" parent="YlER1hfRmnDVrgWF9sil-164">
          <mxGeometry x="721" y="330" width="226" height="352" as="geometry" />
        </mxCell>
        <mxCell id="YlER1hfRmnDVrgWF9sil-181" value="Team 4" style="whiteSpace=wrap;strokeWidth=2;verticalAlign=top;" vertex="1" parent="YlER1hfRmnDVrgWF9sil-164">
          <mxGeometry x="967" y="519" width="226" height="377" as="geometry" />
        </mxCell>
        <mxCell id="YlER1hfRmnDVrgWF9sil-182" value="Team 5" style="whiteSpace=wrap;strokeWidth=2;verticalAlign=top;" vertex="1" parent="YlER1hfRmnDVrgWF9sil-164">
          <mxGeometry x="1213" y="733" width="228" height="352" as="geometry" />
        </mxCell>
        <mxCell id="YlER1hfRmnDVrgWF9sil-183" value="Node Structure" style="whiteSpace=wrap;strokeWidth=2;verticalAlign=top;" vertex="1" parent="YlER1hfRmnDVrgWF9sil-164">
          <mxGeometry x="1476" y="986" width="123" height="34" as="geometry" />
        </mxCell>
        <mxCell id="YlER1hfRmnDVrgWF9sil-184" value="" style="curved=1;startArrow=none;endArrow=block;exitX=0.7841686576689559;exitY=0.9901961158303654;entryX=0.5020006192441018;entryY=-0.0029239654541015625;rounded=0;" edge="1" parent="YlER1hfRmnDVrgWF9sil-164" source="YlER1hfRmnDVrgWF9sil-165" target="YlER1hfRmnDVrgWF9sil-167">
          <mxGeometry relative="1" as="geometry">
            <Array as="points">
              <mxPoint x="269" y="117" />
            </Array>
          </mxGeometry>
        </mxCell>
        <mxCell id="YlER1hfRmnDVrgWF9sil-185" value="" style="curved=1;startArrow=none;endArrow=block;exitX=0.39808885605507655;exitY=0.9901961158303654;entryX=0.24713710118858925;entryY=0.0029240993031284263;rounded=0;" edge="1" parent="YlER1hfRmnDVrgWF9sil-164" source="YlER1hfRmnDVrgWF9sil-165" target="YlER1hfRmnDVrgWF9sil-168">
          <mxGeometry relative="1" as="geometry">
            <Array as="points">
              <mxPoint x="158" y="117" />
              <mxPoint x="158" y="330" />
            </Array>
          </mxGeometry>
        </mxCell>
        <mxCell id="YlER1hfRmnDVrgWF9sil-186" value="" style="curved=1;startArrow=none;endArrow=block;exitX=0.1696211006463023;exitY=0.9901961158303654;entryX=0.203999651291632;entryY=2.342357970120614e-7;rounded=0;" edge="1" parent="YlER1hfRmnDVrgWF9sil-164" source="YlER1hfRmnDVrgWF9sil-165" target="YlER1hfRmnDVrgWF9sil-169">
          <mxGeometry relative="1" as="geometry">
            <Array as="points">
              <mxPoint x="93" y="117" />
              <mxPoint x="93" y="519" />
            </Array>
          </mxGeometry>
        </mxCell>
        <mxCell id="YlER1hfRmnDVrgWF9sil-187" value="" style="curved=1;dashed=1;dashPattern=2 3;startArrow=none;endArrow=block;exitX=0.5020006192441018;exitY=0.994152169478567;entryX=0.7546221058232588;entryY=0.0029240993031284263;rounded=0;" edge="1" parent="YlER1hfRmnDVrgWF9sil-164" source="YlER1hfRmnDVrgWF9sil-167" target="YlER1hfRmnDVrgWF9sil-168">
          <mxGeometry relative="1" as="geometry">
            <Array as="points">
              <mxPoint x="269" y="330" />
            </Array>
          </mxGeometry>
        </mxCell>
        <mxCell id="YlER1hfRmnDVrgWF9sil-188" value="" style="curved=1;dashed=1;dashPattern=2 3;startArrow=none;endArrow=block;exitX=0.5008796035059241;exitY=1.000000234235797;entryX=0.7580530205018446;entryY=2.342357970120614e-7;rounded=0;" edge="1" parent="YlER1hfRmnDVrgWF9sil-164" source="YlER1hfRmnDVrgWF9sil-168" target="YlER1hfRmnDVrgWF9sil-169">
          <mxGeometry relative="1" as="geometry">
            <Array as="points">
              <mxPoint x="214" y="519" />
            </Array>
          </mxGeometry>
        </mxCell>
        <mxCell id="YlER1hfRmnDVrgWF9sil-189" value="" style="curved=1;startArrow=none;endArrow=block;exitX=0.5827343418915956;exitY=0.9803923999561983;entryX=0.49868175983428953;entryY=0.0029240993031284263;rounded=0;" edge="1" parent="YlER1hfRmnDVrgWF9sil-164" source="YlER1hfRmnDVrgWF9sil-170" target="YlER1hfRmnDVrgWF9sil-171">
          <mxGeometry relative="1" as="geometry">
            <Array as="points">
              <mxPoint x="584" y="305" />
            </Array>
          </mxGeometry>
        </mxCell>
        <mxCell id="YlER1hfRmnDVrgWF9sil-190" value="" style="curved=1;startArrow=none;endArrow=block;exitX=0.37682674055707277;exitY=0.9803923999561983;entryX=0.26344159947153234;entryY=2.342357970120614e-7;rounded=0;" edge="1" parent="YlER1hfRmnDVrgWF9sil-164" source="YlER1hfRmnDVrgWF9sil-170" target="YlER1hfRmnDVrgWF9sil-172">
          <mxGeometry relative="1" as="geometry">
            <Array as="points">
              <mxPoint x="469" y="305" />
              <mxPoint x="469" y="519" />
            </Array>
          </mxGeometry>
        </mxCell>
        <mxCell id="YlER1hfRmnDVrgWF9sil-191" value="" style="curved=1;dashed=1;dashPattern=2 3;startArrow=none;endArrow=block;exitX=0.49868175983428953;exitY=1.000000234235797;entryX=0.7393177890433955;entryY=2.342357970120614e-7;rounded=0;" edge="1" parent="YlER1hfRmnDVrgWF9sil-164" source="YlER1hfRmnDVrgWF9sil-171" target="YlER1hfRmnDVrgWF9sil-172">
          <mxGeometry relative="1" as="geometry">
            <Array as="points">
              <mxPoint x="584" y="519" />
            </Array>
          </mxGeometry>
        </mxCell>
        <mxCell id="YlER1hfRmnDVrgWF9sil-192" value="" style="curved=1;startArrow=none;endArrow=block;exitX=0.4853286037561781;exitY=1.0000006170833813;entryX=0.4991654860667693;entryY=2.342357970120614e-7;rounded=0;" edge="1" parent="YlER1hfRmnDVrgWF9sil-164" source="YlER1hfRmnDVrgWF9sil-173" target="YlER1hfRmnDVrgWF9sil-174">
          <mxGeometry relative="1" as="geometry">
            <Array as="points">
              <mxPoint x="834" y="494" />
            </Array>
          </mxGeometry>
        </mxCell>
        <mxCell id="YlER1hfRmnDVrgWF9sil-193" value="" style="curved=1;startArrow=none;endArrow=block;exitX=0.47835401030339275;exitY=0.9901970695046818;entryX=0.5004342152522161;entryY=-0.0029236308315344025;rounded=0;" edge="1" parent="YlER1hfRmnDVrgWF9sil-164" source="YlER1hfRmnDVrgWF9sil-175" target="YlER1hfRmnDVrgWF9sil-176">
          <mxGeometry relative="1" as="geometry">
            <Array as="points">
              <mxPoint x="1080" y="683" />
            </Array>
          </mxGeometry>
        </mxCell>
        <mxCell id="YlER1hfRmnDVrgWF9sil-194" value="" style="curved=1;startArrow=none;endArrow=block;exitX=0.49479200943656587;exitY=0.9803935219259823;entryX=0.4993739309190195;entryY=0.0029244339256955867;rounded=0;" edge="1" parent="YlER1hfRmnDVrgWF9sil-164" source="YlER1hfRmnDVrgWF9sil-177" target="YlER1hfRmnDVrgWF9sil-178">
          <mxGeometry relative="1" as="geometry">
            <Array as="points" />
          </mxGeometry>
        </mxCell>
        <mxCell id="YlER1hfRmnDVrgWF9sil-195" value="" style="curved=1;dashed=1;dashPattern=2 3;startArrow=none;endArrow=block;exitX=0.9772085584758958;exitY=0.9901961158303654;entryX=0.11799356200739981;entryY=-0.009803715874167049;rounded=0;" edge="1" parent="YlER1hfRmnDVrgWF9sil-164" source="YlER1hfRmnDVrgWF9sil-165" target="YlER1hfRmnDVrgWF9sil-170">
          <mxGeometry relative="1" as="geometry">
            <Array as="points">
              <mxPoint x="324" y="117" />
              <mxPoint x="324" y="142" />
            </Array>
          </mxGeometry>
        </mxCell>
        <mxCell id="YlER1hfRmnDVrgWF9sil-196" value="" style="curved=1;dashed=1;dashPattern=2 3;startArrow=none;endArrow=block;exitX=0.6856881425588565;exitY=0.9803923999561983;entryX=0.1409583425946711;entryY=0.009804501253015855;rounded=0;" edge="1" parent="YlER1hfRmnDVrgWF9sil-164" source="YlER1hfRmnDVrgWF9sil-170" target="YlER1hfRmnDVrgWF9sil-173">
          <mxGeometry relative="1" as="geometry">
            <Array as="points">
              <mxPoint x="641" y="305" />
              <mxPoint x="641" y="330" />
            </Array>
          </mxGeometry>
        </mxCell>
        <mxCell id="YlER1hfRmnDVrgWF9sil-197" value="" style="curved=1;dashed=1;dashPattern=2 3;startArrow=none;endArrow=block;exitX=0.5864936858195654;exitY=1.0000006170833813;entryX=0.13914028949211768;entryY=9.5367431640625e-7;rounded=0;" edge="1" parent="YlER1hfRmnDVrgWF9sil-164" source="YlER1hfRmnDVrgWF9sil-173" target="YlER1hfRmnDVrgWF9sil-175">
          <mxGeometry relative="1" as="geometry">
            <Array as="points">
              <mxPoint x="890" y="494" />
              <mxPoint x="890" y="519" />
            </Array>
          </mxGeometry>
        </mxCell>
        <mxCell id="YlER1hfRmnDVrgWF9sil-198" value="" style="curved=1;dashed=1;dashPattern=2 3;startArrow=none;endArrow=block;exitX=0.5794911436385953;exitY=0.9901970695046818;entryX=0.15441374918633183;entryY=-0.009802593904383042;rounded=0;" edge="1" parent="YlER1hfRmnDVrgWF9sil-164" source="YlER1hfRmnDVrgWF9sil-175" target="YlER1hfRmnDVrgWF9sil-177">
          <mxGeometry relative="1" as="geometry">
            <Array as="points">
              <mxPoint x="1137" y="683" />
              <mxPoint x="1137" y="733" />
            </Array>
          </mxGeometry>
        </mxCell>
      </root>
    </mxGraphModel>
  </diagram>
</mxfile>
